<?xml version="1.0" encoding="utf-8"?>
<!-- Generator: Adobe Illustrator 18.0.0, SVG Export Plug-In . SVG Version: 6.00 Build 0)  -->
<!DOCTYPE svg PUBLIC "-//W3C//DTD SVG 1.1//EN" "http://www.w3.org/Graphics/SVG/1.1/DTD/svg11.dtd">
<svg version="1.1" id="Layer_1" xmlns="http://www.w3.org/2000/svg" xmlns:xlink="http://www.w3.org/1999/xlink" x="0px" y="0px"
	 viewBox="0 0 100 100" enable-background="new 0 0 100 100" xml:space="preserve">
<path d="M56.4,40.9L41.7,26.2l-1.1-1.1c-1.1-1.1-2.9-1.1-4,0l-1.1,1.1l0,0L20.8,40.9c-1.1,1.1-1.1,2.9,0,4l1.1,1.1
	c1.1,1.1,2.9,1.1,4,0l12.8-12.8L51.4,46c1.1,1.1,2.9,1.1,4,0l1.1-1.1C57.5,43.8,57.5,42,56.4,40.9z"/>
<g>
	
		<image overflow="visible" opacity="0.5" width="400" height="400" xlink:href="F5EDAE5F.png"  transform="matrix(0.24 0 0 0.24 3.439 3.439)">
	</image>
	<g>
		<circle cx="50" cy="50" r="39.5"/>
	</g>
</g>
<path fill="#20A6A5" d="M44.6,55.4l5.4-2.7l18.8-18.8l-2.7-2.7L47.3,50L44.6,55.4z M40.6,64.9c-1.3-2.8-2.8-4.2-5.6-5.6l4.2-11.5
	l5.4-3.3l16.1-16.1h-8.1L36.6,44.6l-8.1,26.9l26.9-8.1l16.1-16.1v-8.1L55.4,55.4l-3.3,5.4"/>
</svg>
