<?xml version="1.0" encoding="utf-8"?>
<!-- Generator: Adobe Illustrator 18.0.0, SVG Export Plug-In . SVG Version: 6.00 Build 0)  -->
<!DOCTYPE svg PUBLIC "-//W3C//DTD SVG 1.1//EN" "http://www.w3.org/Graphics/SVG/1.1/DTD/svg11.dtd">
<svg version="1.1" id="Layer_1" xmlns="http://www.w3.org/2000/svg" xmlns:xlink="http://www.w3.org/1999/xlink" x="0px" y="0px"
	 viewBox="0 0 1102.1 1000" enable-background="new 0 0 1102.1 1000" xml:space="preserve">
<path fill="none" stroke="#fff" stroke-width="12" stroke-miterlimit="10" d="M136.3,898.8c0-55.9,42.6-101.5,95.6-101.5
	s95.6,45.6,95.6,101.5"/>
<path fill="none" stroke="#fff" stroke-width="12" stroke-miterlimit="10" d="M452.5,898.8c0-54.9,41.7-99,93.1-99
	s93.1,44.1,93.1,99"/>
<path fill="none" stroke="#fff" stroke-width="12" stroke-miterlimit="10" d="M324,712.5c-8.3,12.3-81.4,3.4-102.5-10.8
	c-21.1-14.2-31.4-35.3-23-47.5"/>
<path fill="none" stroke="#fff" stroke-width="12" stroke-miterlimit="10" d="M612.7,727.7c-23.5-2.5-89.2-23-76-67.2"/>
<path fill="none" stroke="#fff" stroke-width="12" stroke-miterlimit="10" d="M126.5,715.9c22.1-4.9,73.5-27.9,69.1-60.3"/>
<path fill="none" stroke="#fff" stroke-width="12" stroke-miterlimit="10" d="M480.4,716.4c21.6-8.3,57.4-26,53.4-54.4"/>
<path fill="none" stroke="#fff" stroke-width="12" stroke-miterlimit="10" d="M198,655.1c11.8-10.8,33.8-18.1,40.2-19.6
	c27.5-4.9,62.3,17.2,73.5,43.1c0,0,38.7,71.6,0,154.4"/>
<path fill="none" stroke="#fff" stroke-width="12" stroke-miterlimit="10" d="M205.4,659.1c-7.8-9.3-26.5-15.7-35.8-9.3
	c-7.8,4.9-10.8,9.3-24.5,26.5c0,0-43.1,52.5,6.9,156.9"/>
<path fill="none" stroke="#fff" stroke-width="12" stroke-miterlimit="10" d="M299,722.8c0,38.2-30.9,69.1-69.1,69.1
	s-69.1-30.9-69.1-69.1c0-8.3,1.5-16.2,3.9-23.5"/>
<circle fill="none" stroke="#fff" stroke-width="12" stroke-miterlimit="10" cx="545.6" cy="727.7" r="67.2"/>
<path fill="none" stroke="#fff" stroke-width="12" stroke-miterlimit="10" d="M794.1,898.8c0-54.9,41.7-99,93.1-99
	c51.5,0,93.1,44.1,93.1,99"/>
<path fill="none" stroke="#fff" stroke-width="12" stroke-miterlimit="10" d="M954.4,727.7c-23.5-2.5-89.2-23-76-67.2"/>
<path fill="none" stroke="#fff" stroke-width="12" stroke-miterlimit="10" d="M822.1,716.4c21.6-8.3,57.4-26,53.4-54.4"/>
<circle fill="none" stroke="#fff" stroke-width="12" stroke-miterlimit="10" cx="887.3" cy="727.7" r="67.2"/>
<path fill="none" stroke="#fff" stroke-width="12" stroke-miterlimit="10" d="M743.6,703.7c0,0-13.2,83.3-127.5,134.8"/>
<path fill="none" stroke="#fff" stroke-width="12" stroke-miterlimit="10" d="M947.1,818.9c0,0-12.7,63.7-125,102.9"/>
<path fill="none" stroke="#fff" stroke-width="12" stroke-miterlimit="10" d="M22.1,703.7c0,0,13.2,83.3,127.5,134.8"/>
<circle fill="none" stroke="#fff" stroke-width="13" stroke-miterlimit="10" cx="551" cy="266.4" r="174"/>
<rect x="536.3" y="178.2" fill="#fff" width="29.4" height="176.5"/>
<rect x="462.8" y="251.7" fill="#fff" width="176.5" height="29.4"/>
</svg>
