<?xml version="1.0" encoding="utf-8"?>
<!-- Generator: Adobe Illustrator 15.1.0, SVG Export Plug-In . SVG Version: 6.00 Build 0)  -->
<!DOCTYPE svg PUBLIC "-//W3C//DTD SVG 1.1//EN" "http://www.w3.org/Graphics/SVG/1.1/DTD/svg11.dtd">
<svg version="1.1" id="Layer_1" xmlns="http://www.w3.org/2000/svg" xmlns:xlink="http://www.w3.org/1999/xlink" x="0px" y="0px"
	 width="80px" height="80px" viewBox="0 0 80 80" enable-background="new 0 0 80 80" xml:space="preserve">
<path fill="#0112fe" d="M39.959,2.362c-25.028,0-37.547,12.516-37.547,37.545s12.519,37.545,37.547,37.545
	c25.023,0,37.537-12.516,37.537-37.545S64.982,2.362,39.959,2.362z M39.963,69.68c-19.85,0-29.776-9.925-29.776-29.774
	s9.927-29.774,29.776-29.774c19.845,0,29.772,9.925,29.772,29.774S59.809,69.68,39.963,69.68z"/>
<path fill-rule="evenodd" clip-rule="evenodd" fill="#0112fe" d="M56.267,35.27H41.135c-0.058-4.715-0.223-8.202-0.1-8.58
	c0.636-1.875-1.759-3.078-2.737-2.284c-0.795,0.636-15.209,13.58-16.551,14.677c-1.946,1.246-0.542,3.757-0.542,3.756
	c0.94,0.825,15.779,13.176,16.902,14.097c0.828,0.674,2.577,0.719,2.601-1.911c0.01-0.538,0.18-4.105,0.308-8.62h15.251
	c2.737,0,4.95-2.216,4.95-4.949v-1.237C61.217,37.485,59.004,35.27,56.267,35.27z"/>
</svg>
