<?xml version="1.0" encoding="utf-8"?>
<!-- Generator: Adobe Illustrator 18.0.0, SVG Export Plug-In . SVG Version: 6.00 Build 0)  -->
<!DOCTYPE svg PUBLIC "-//W3C//DTD SVG 1.1//EN" "http://www.w3.org/Graphics/SVG/1.1/DTD/svg11.dtd">
<svg version="1.1" id="Capa_1" xmlns="http://www.w3.org/2000/svg" xmlns:xlink="http://www.w3.org/1999/xlink" x="0px" y="0px"
	 viewBox="174.6 17.5 613.5 537" enable-background="new 174.6 17.5 613.5 537" xml:space="preserve">
<g>
	<path d="M379.8,40.4H230.8c-20.3,0-36.8,16.5-36.8,36.8v148.9c0,20.3,16.5,36.8,36.8,36.8h148.9c20.3,0,36.8-16.5,36.8-36.8V77.2
		C416.6,57,400.1,40.4,379.8,40.4z M218,77.2c0-7.1,5.8-12.8,12.8-12.8h148.9c7.1,0,12.8,5.8,12.8,12.8v148.9
		c0,7.1-5.8,12.8-12.8,12.8H230.8c-7.1,0-12.8-5.8-12.8-12.8V77.2z"/>
	<path d="M453.5,103.6h300.6c3.8,0,6.9-5.4,6.9-12c0-6.6-3.1-12-6.9-12H453.5c-3.8,0-6.9,5.4-6.9,12
		C446.6,98.2,449.7,103.6,453.5,103.6z"/>
	<path d="M453.5,163.7h238.8c3.8,0,6.9-5.4,6.9-12s-3.1-12-6.9-12H453.5c-3.8,0-6.9,5.4-6.9,12C446.6,158.3,449.7,163.7,453.5,163.7
		z"/>
	<path d="M754.1,199.8H453.5c-3.8,0-6.9,5.4-6.9,12c0,6.6,3.1,12,6.9,12h300.6c3.8,0,6.9-5.4,6.9-12
		C760.9,205.2,757.9,199.8,754.1,199.8z"/>
	<path d="M754.1,348.9H453.5c-3.8,0-6.9,5.4-6.9,12c0,6.6,3.1,12,6.9,12h300.6c3.8,0,6.9-5.4,6.9-12
		C760.9,354.3,757.9,348.9,754.1,348.9z"/>
	<path d="M453.5,432.9h238.8c3.8,0,6.9-5.4,6.9-12c0-6.6-3.1-12-6.9-12H453.5c-3.8,0-6.9,5.4-6.9,12
		C446.6,427.6,449.7,432.9,453.5,432.9z"/>
	<path d="M754.1,469H453.5c-3.8,0-6.9,5.4-6.9,12c0,6.6,3.1,12,6.9,12h300.6c3.8,0,6.9-5.4,6.9-12C760.9,474.4,757.9,469,754.1,469z
		"/>
	<path d="M242.2,202.7c0,3.2,1.2,6.2,3.5,8.5c2.3,2.3,5.3,3.5,8.5,3.5c3.2,0,6.2-1.2,8.5-3.5l42.7-42.6l42.7,42.6
		c2.3,2.3,5.3,3.5,8.5,3.5c3.2,0,6.2-1.2,8.5-3.5c2.3-2.3,3.5-5.3,3.5-8.5c0-3.2-1.3-6.2-3.5-8.5l-42.6-42.6l42.6-42.6
		c4.7-4.7,4.7-12.3,0-16.9c-2.3-2.3-5.3-3.5-8.5-3.5c-3.2,0-6.2,1.2-8.5,3.5l-42.7,42.6l-42.7-42.6c-2.3-2.3-5.3-3.5-8.5-3.5
		c-3.2,0-6.2,1.2-8.5,3.5c-2.3,2.3-3.5,5.3-3.5,8.5c0,3.2,1.3,6.2,3.5,8.5l42.6,42.6l-42.6,42.6
		C243.4,196.5,242.2,199.5,242.2,202.7z"/>
	<path d="M379.8,309.7H230.8c-20.3,0-36.8,16.5-36.8,36.8v148.9c0,20.3,16.5,36.8,36.8,36.8h148.9c20.3,0,36.8-16.5,36.8-36.8V346.5
		C416.6,326.2,400.1,309.7,379.8,309.7z M218,346.5c0-7.1,5.8-12.8,12.8-12.8h148.9c7.1,0,12.8,5.8,12.8,12.8v148.9
		c0,7.1-5.8,12.8-12.8,12.8H230.8c-7.1,0-12.8-5.8-12.8-12.8V346.5z"/>
	<path d="M328.8,578.9H179.8"/>
	<path d="M275.7,481.1c2.3,2.6,5.6,4.1,9.1,4.1c0.2,0,0.4,0,0.7,0c3.7-0.2,7.1-2.1,9.2-5.2l71.8-104.7c1.8-2.6,2.5-5.8,1.9-9
		c-0.6-3.1-2.4-5.9-5-7.7c-2-1.4-4.3-2.1-6.8-2.1c-4,0-7.7,1.9-9.9,5.2l-63,91.8l-20.6-23.8c-2.3-2.6-5.6-4.1-9.1-4.1
		c-2.9,0-5.7,1-7.8,2.9c-5,4.3-5.6,11.9-1.2,16.9L275.7,481.1z"/>
</g>
</svg>
