<?xml version="1.0" encoding="utf-8"?>
<!-- Generator: Adobe Illustrator 18.0.0, SVG Export Plug-In . SVG Version: 6.00 Build 0)  -->
<!DOCTYPE svg PUBLIC "-//W3C//DTD SVG 1.1//EN" "http://www.w3.org/Graphics/SVG/1.1/DTD/svg11.dtd">
<svg version="1.1" id="Layer_2" xmlns="http://www.w3.org/2000/svg" xmlns:xlink="http://www.w3.org/1999/xlink" x="0px" y="0px"
	 viewBox="-6.7 -9.4 113.7 113.3" enable-background="new -6.7 -9.4 113.7 113.3" xml:space="preserve">
<g>
	<path fill="#FFFFFF" d="M50.3-8.6C19.6-8.6-5.3,16.3-5.3,47s24.9,55.6,55.6,55.6s55.6-24.9,55.6-55.6S81-8.6,50.3-8.6z M81.8,34
		L46.5,69.3c-2.6,2.6-6.9,2.6-9.5,0L18.8,51.1c-2.6-2.6-2.6-6.9,0-9.5s6.9-2.6,9.5,0l13.5,13.5l30.6-30.6c2.6-2.6,6.9-2.6,9.5,0
		C84.4,27.2,84.4,31.4,81.8,34z"/>
</g>
</svg>
