<?xml version="1.0" encoding="utf-8"?>
<!-- Generator: Adobe Illustrator 18.0.0, SVG Export Plug-In . SVG Version: 6.00 Build 0)  -->
<!DOCTYPE svg PUBLIC "-//W3C//DTD SVG 1.1//EN" "http://www.w3.org/Graphics/SVG/1.1/DTD/svg11.dtd">
<svg version="1.1" id="Layer_1" xmlns="http://www.w3.org/2000/svg" xmlns:xlink="http://www.w3.org/1999/xlink" x="0px" y="0px"
	 viewBox="0 0 1200 841.9" enable-background="new 0 0 1200 841.9" xml:space="preserve">
<g>
	<path d="M600,88.4c-183.7,0-332.5,148.9-332.5,332.5S416.3,753.5,600,753.5s332.5-148.9,332.5-332.5S783.7,88.4,600,88.4z
		 M758.3,285.4L600,443.7l-45.5,22.7l22.7-45.5l158.3-158.3L758.3,285.4z M781,398.2L645.5,533.8L419,602l68.2-226.5l134.7-136.4
		h68.2L554.5,374.6l-45.5,27.8l-35.4,96.8c23.6,11.8,36.2,23.6,47.1,47.1l96.8-34.5l27.8-45.5L781,330V398.2z" fill="#E54825"/>
</g>
</svg>
