<?xml version="1.0" encoding="utf-8"?>
<!-- Generator: Adobe Illustrator 18.0.0, SVG Export Plug-In . SVG Version: 6.00 Build 0)  -->
<!DOCTYPE svg PUBLIC "-//W3C//DTD SVG 1.1//EN" "http://www.w3.org/Graphics/SVG/1.1/DTD/svg11.dtd">
<svg version="1.1" id="Layer_2" xmlns="http://www.w3.org/2000/svg" xmlns:xlink="http://www.w3.org/1999/xlink" x="0px" y="0px"
	 viewBox="-108 -397.5 313 307" enable-background="new -108 -397.5 313 307" xml:space="preserve">
<path  fill="#fff" d="M50-389.5c-81.5,0-147.5,66-147.5,147.5S-31.5-94.5,50-94.5s147.5-66,147.5-147.5S131.5-389.5,50-389.5z M76.3-274.1
	c-0.3,5-2.2,9.6-3.9,14.3c-11.2,29.3-22.5,58.6-33.7,87.9c-0.8,2-1.4,4.1-1.7,6.2c-0.4,2.5,0.4,3.9,2.8,5c3.2,1.5,6.7,2,10.2,1.6
	c1.6-0.2,3.1-0.7,4.6-1.1c0.6-0.1,1.2-0.1,1.7,0c2.4,0.4,3.2,2,1.7,4c-1,1.3-2.2,2.4-3.6,3.3c-5.9,3.8-12.2,6.7-19.3,7.5
	c-2.1,0.3-4.2,0.4-5.3,0.4c-5.2-0.1-9.4-0.4-13.4-1.8c-5.3-1.8-8.9-5.2-9.7-11c-0.5-3.5-0.1-7.1,1-10.4c2-5.9,4.2-11.8,6.4-17.7
	c9.9-25.9,19.8-51.7,29.7-77.6c0.7-1.8,1.2-3.7,1.6-5.6c1-5.6-1.7-9-7.3-9.8c-2.9-0.4-5.7,0.2-8.5,0.6c-1.3,0.2-2.7,0.4-4,0.6
	c-0.6,0.1-1.3,0-1.9-0.2c-1.7-0.5-2.2-1.7-1.6-3.3c0.7-1.7,1.9-2.9,3.5-3.6c2.9-1.2,5.8-2.6,8.9-3.3c7.9-1.9,16-3.5,24.2-3.2
	c4.2,0.2,8.2,1.4,11.7,3.8C75-284.3,76.6-279.7,76.3-274.1z M93-321.2c-2.3,7.3-9.4,13.1-17.1,13.9c-3.4,0.3-6.8,0-9.9-1.5
	c-5.3-2.4-8-6.6-8.3-11.9c0.2-4.6,1.7-8.1,4.3-11.2c5.4-6.4,15.6-8.9,23.3-5.7C92-334.8,95.1-328.2,93-321.2z"/>
</svg>
