<?xml version="1.0" encoding="utf-8"?>
<!-- Generator: Adobe Illustrator 18.0.0, SVG Export Plug-In . SVG Version: 6.00 Build 0)  -->
<!DOCTYPE svg PUBLIC "-//W3C//DTD SVG 1.1//EN" "http://www.w3.org/Graphics/SVG/1.1/DTD/svg11.dtd">
<svg version="1.1" id="Layer_1" xmlns="http://www.w3.org/2000/svg" xmlns:xlink="http://www.w3.org/1999/xlink" x="0px" y="0px"
	 viewBox="0 0 204 175.5" enable-background="new 0 0 204 175.5" xml:space="preserve">
<path fill="none" stroke="#000000" stroke-width="3" stroke-miterlimit="10" d="M27.8,169.1c0-11.4,8.7-20.7,19.5-20.7
	s19.5,9.3,19.5,20.7"/>
<path fill="none" stroke="#000000" stroke-width="3" stroke-miterlimit="10" d="M92.3,169.1c0-11.2,8.5-20.2,19-20.2s19,9,19,20.2"
	/>
<path fill="none" stroke="#000000" stroke-width="3" stroke-miterlimit="10" d="M66.1,131.1c-1.7,2.5-16.6,0.7-20.9-2.2
	c-4.3-2.9-6.4-7.2-4.7-9.7"/>
<path fill="none" stroke="#000000" stroke-width="3" stroke-miterlimit="10" d="M125,134.2c-4.8-0.5-18.2-4.7-15.5-13.7"/>
<path fill="none" stroke="#000000" stroke-width="3" stroke-miterlimit="10" d="M25.8,131.8c4.5-1,15-5.7,14.1-12.3"/>
<path fill="none" stroke="#000000" stroke-width="3" stroke-miterlimit="10" d="M98,131.9c4.4-1.7,11.7-5.3,10.9-11.1"/>
<path fill="none" stroke="#000000" stroke-width="3" stroke-miterlimit="10" d="M40.4,119.4c2.4-2.2,6.9-3.7,8.2-4
	c5.6-1,12.7,3.5,15,8.8c0,0,7.9,14.6,0,31.5"/>
<path fill="none" stroke="#000000" stroke-width="3" stroke-miterlimit="10" d="M41.9,120.2c-1.6-1.9-5.4-3.2-7.3-1.9
	c-1.6,1-2.2,1.9-5,5.4c0,0-8.8,10.7,1.4,32"/>
<path fill="none" stroke="#000000" stroke-width="3" stroke-miterlimit="10" d="M61,133.2c0,7.8-6.3,14.1-14.1,14.1
	s-14.1-6.3-14.1-14.1c0-1.7,0.3-3.3,0.8-4.8"/>
<circle fill="none" stroke="#000000" stroke-width="3" stroke-miterlimit="10" cx="111.3" cy="134.2" r="13.7"/>
<path fill="none" stroke="#000000" stroke-width="3" stroke-miterlimit="10" d="M162,169.1c0-11.2,8.5-20.2,19-20.2s19,9,19,20.2"/>
<path fill="none" stroke="#000000" stroke-width="3" stroke-miterlimit="10" d="M194.7,134.2c-4.8-0.5-18.2-4.7-15.5-13.7"/>
<path fill="none" stroke="#000000" stroke-width="3" stroke-miterlimit="10" d="M167.7,131.9c4.4-1.7,11.7-5.3,10.9-11.1"/>
<circle fill="none" stroke="#000000" stroke-width="3" stroke-miterlimit="10" cx="181" cy="134.2" r="13.7"/>
<path fill="none" stroke="#000000" stroke-width="3" stroke-miterlimit="10" d="M151.7,129.3c0,0-2.7,17-26,27.5"/>
<path fill="none" stroke="#000000" stroke-width="3" stroke-miterlimit="10" d="M193.2,152.8c0,0-2.6,13-25.5,21"/>
<path fill="none" stroke="#000000" stroke-width="3" stroke-miterlimit="10" d="M4.5,129.3c0,0,2.7,17,26,27.5"/>
<circle fill="none" stroke="#000000" stroke-width="4" stroke-miterlimit="10" cx="112.3" cy="40.1" r="35.5"/>
<rect x="109.3" y="22.1" width="6" height="36"/>
<rect x="94.3" y="37.1" width="36" height="6"/>
</svg>
