<?xml version="1.0" encoding="utf-8"?>
<!-- Generator: Adobe Illustrator 15.1.0, SVG Export Plug-In . SVG Version: 6.00 Build 0)  -->
<!DOCTYPE svg PUBLIC "-//W3C//DTD SVG 1.1//EN" "http://www.w3.org/Graphics/SVG/1.1/DTD/svg11.dtd">
<svg version="1.1" id="Layer_1" xmlns="http://www.w3.org/2000/svg" xmlns:xlink="http://www.w3.org/1999/xlink" x="0px" y="0px"
	 width="80px" height="80px" viewBox="0 0 80 80" enable-background="new 0 0 80 80" xml:space="preserve">
<g>
	<path fill="#ffffff" d="M40,2.466c-25.023,0-37.535,12.516-37.535,37.532c0,25.025,12.512,37.536,37.535,37.536
		s37.535-12.511,37.535-37.536C77.535,14.981,65.023,2.466,40,2.466z M39.998,69.761c-19.844,0-29.766-9.915-29.766-29.763
		c0-19.839,9.922-29.772,29.766-29.772c19.844,0,29.766,9.934,29.766,29.772C69.764,59.846,59.842,69.761,39.998,69.761z"/>
	<path fill="#ffffff" d="M52.809,25.883c-1.492-1.491-3.912-1.491-5.402,0L39.3,33.987l-8.104-8.104
		c-1.492-1.491-3.911-1.491-5.403,0c-1.492,1.487-1.492,3.91,0,5.402l8.104,8.105l-8.104,8.104c-1.492,1.491-1.492,3.904,0,5.406
		c1.492,1.487,3.911,1.487,5.403,0l8.104-8.106l8.106,8.106c1.49,1.487,3.91,1.487,5.402,0c1.492-1.502,1.492-3.915,0-5.406
		l-8.105-8.104l8.105-8.105C54.301,29.793,54.301,27.37,52.809,25.883z"/>
</g>
</svg>
