<?xml version="1.0" encoding="utf-8"?>
<!-- Generator: Adobe Illustrator 15.1.0, SVG Export Plug-In . SVG Version: 6.00 Build 0)  -->
<!DOCTYPE svg PUBLIC "-//W3C//DTD SVG 1.1//EN" "http://www.w3.org/Graphics/SVG/1.1/DTD/svg11.dtd">
<svg version="1.1" id="Layer_1" xmlns="http://www.w3.org/2000/svg" xmlns:xlink="http://www.w3.org/1999/xlink" x="0px" y="0px"
	 width="80px" height="80px" viewBox="0 0 80 80" enable-background="new 0 0 80 80" xml:space="preserve">
<g>
	<path fill-rule="evenodd" clip-rule="evenodd" fill="#17a589" d="M39.827,15.131c-16.579,0.119-24.811,8.467-24.695,25.048
		c0.116,16.577,8.464,24.81,25.043,24.69c16.58-0.112,24.81-8.464,24.695-25.038C64.754,23.25,56.406,15.018,39.827,15.131z
		 M40,59.018c-12.6,0-18.898-6.302-18.898-18.897c0-12.598,6.299-18.899,18.898-18.899c12.599,0,18.898,6.301,18.898,18.899
		C58.898,52.716,52.6,59.018,40,59.018z"/>
	<path fill-rule="evenodd" clip-rule="evenodd" fill="#17a589" d="M40,25.744c-1.152,0-2.087,0.791-2.087,1.765v10.752h-7.652
		c-1.152,0-2.087,0.94-2.087,2.092c0,1.154,0.935,2.084,2.087,2.084l11.811-0.044v-2.04v-0.947c0.004-0.041,0.016-0.081,0.016-0.123
		V27.508C42.088,26.534,41.152,25.744,40,25.744z"/>
</g>
</svg>
