<?xml version="1.0" encoding="utf-8"?>
<!-- Generator: Adobe Illustrator 18.0.0, SVG Export Plug-In . SVG Version: 6.00 Build 0)  -->
<!DOCTYPE svg PUBLIC "-//W3C//DTD SVG 1.1//EN" "http://www.w3.org/Graphics/SVG/1.1/DTD/svg11.dtd">
<svg version="1.1" id="Layer_1" xmlns="http://www.w3.org/2000/svg" xmlns:xlink="http://www.w3.org/1999/xlink" x="0px" y="0px"
	 viewBox="0 0 108.5 82.8" enable-background="new 0 0 108.5 82.8" xml:space="preserve">
<g>
	<path fill="#064566" d="M52.9,19.9L49,14.2c-2-2.8-1.2-6.7,1.6-8.7l0.8-0.6c1-0.7,2.1-1,3.3-1.1c-2.1-0.1-4.2,0.8-5.4,2.7L4.6,70.8
		c-2,2.8-1.2,6.7,1.6,8.7L7,80.1c2.8,2,6.7,1.2,8.7-1.6l11.1-16h-1L52.9,19.9z"/>
	<path fill="#064566" d="M104.7,70.8L60.1,6.5c-1.3-1.8-3.4-2.8-5.4-2.7c1.1,0.1,2.3,0.4,3.3,1.1l0.8,0.6c2.8,2,3.5,5.9,1.6,8.7
		l-3.6,5.3L84,62.5h-1.6l11.1,16c2,2.8,5.9,3.5,8.7,1.6l0.8-0.6C105.9,77.5,106.6,73.6,104.7,70.8z"/>
	<path fill="#064566" d="M50.5,5.5c-2.8,2-3.5,5.9-1.6,8.7l3.9,5.7l2-3.2l1.8,2.8l3.6-5.3c2-2.8,1.2-6.7-1.6-8.7l-0.8-0.6
		c-1-0.7-2.1-1-3.3-1.1c-1.1,0.1-2.3,0.4-3.3,1.1L50.5,5.5z"/>
	<polygon fill="#064566" points="35.4,62.5 73.6,62.5 54.5,35 	"/>
	<path fill="#064566" d="M82.4,62.5L54.6,22.4L26.8,62.5h0l24.7-35.6c0.7-1,1.8-1.5,3-1.5c1.1,0,2.3,0.5,3,1.5"/>
	<polygon fill="#064566" points="52.9,19.9 25.8,62.5 26.8,62.5 54.6,22.4 	"/>
	<polygon fill="#064566" points="56.7,19.4 54.6,22.4 82.4,62.5 84,62.5 	"/>
	<polygon fill="#064566" points="52.9,19.9 54.6,22.4 56.7,19.4 54.9,16.7 	"/>
</g>
</svg>
